<?xml version="1.0" standalone="no"?>
<!DOCTYPE svg PUBLIC "-//W3C//DTD SVG 20010904//EN"
 "http://www.w3.org/TR/2001/REC-SVG-20010904/DTD/svg10.dtd">
<svg version="1.0" xmlns="http://www.w3.org/2000/svg"
 width="560.000000pt" height="560.000000pt" viewBox="0 0 560.000000 560.000000"
 preserveAspectRatio="xMidYMid meet">
<metadata>
Created by potrace 1.14, written by Peter Selinger 2001-2017
</metadata>
<g transform="translate(0.000000,560.000000) scale(0.100000,-0.100000)"
fill="#000000" stroke="none">
<path d="M0 2800 l0 -2800 2800 0 2800 0 0 2800 0 2800 -2800 0 -2800 0 0
-2800z m2000 700 l0 -100 150 0 150 0 0 -200 0 -200 450 0 450 0 0 200 0 200
150 0 150 0 0 100 0 100 150 0 150 0 0 -1200 0 -1200 -100 0 -100 0 0 -200 0
-200 -200 0 -200 0 0 -200 0 -200 -450 0 -450 0 0 200 0 200 -200 0 -200 0 0
200 0 200 -100 0 -100 0 0 1200 0 1200 150 0 150 0 0 -100z m-600 -900 l0
-250 -50 0 -50 0 0 250 0 250 50 0 50 0 0 -250z m2800 75 l0 -175 -50 0 -50 0
0 175 0 175 50 0 50 0 0 -175z"/>
<path d="M1900 2450 l0 -150 250 0 250 0 0 150 0 150 -250 0 -250 0 0 -150z"/>
<path d="M3100 2450 l0 -150 250 0 250 0 0 150 0 150 -250 0 -250 0 0 -150z"/>
<path d="M2300 1300 l0 -100 450 0 450 0 0 100 0 100 -450 0 -450 0 0 -100z"/>
</g>
</svg>
